# xmcd
#
# Track frame offsets:
# 150
# 8848
# 20399
# 29167
# 38774
# 48213
# 59359
# 68415
# 78350
# 87699
# 99588
# 108809
#
# Disc length: 1617 seconds
#
#
# Revision: 0
# Processed by: cddbd v1.4PL0 Copyright (c) Steve Scherf et al.
# Submitted via: FreeRIP 2.00 
#
DISCID=8e064f0c
DTITLE=Jim Reeves - Girls I Have Known
DYEAR=1958
DGENRE=Country
TTITLE0=Marie
TTITLE1=Mona Lisa
TTITLE2=Juanita
TTITLE3=Charmaine
TTITLE4=Margie
TTITLE5=Ann Marie
TTITLE6=Sweet Sue, Just You
TTITLE7=Linda
TTITLE8=Ramona
TTITLE9=Maria Elena
TTITLE10=My Mary
TTITLE11=Goodnight Irene
EXTD=RCA LPM-1685
EXTT0=
EXTT1=
EXTT2=
EXTT3=
EXTT4=
EXTT5=
EXTT6=
EXTT7=
EXTT8=
EXTT9=
EXTT10=
EXTT11=
PLAYORDER=
